<?xml version="1.0" encoding="UTF-8"?>
<svg id="Layer_1" xmlns="http://www.w3.org/2000/svg" version="1.1" viewBox="0 0 32 32">
  <!-- Generator: Adobe Illustrator 29.5.0, SVG Export Plug-In . SVG Version: 2.1.0 Build 137)  -->
  <defs>
    <style>
      .st0 {
        fill: #fff;
      }
    </style>
  </defs>
  <g>
    <path class="st0" d="M32,0v32H0V0h32ZM28.2,3.9H8.3c-.4,0-5.3,5-5.3,5.3v19.9c1-.3,2.1,1,2.4,1h16.5c.4,0,6.3-5.9,6.3-6.3V3.9Z"/>
    <path d="M28.2,3.9v19.9c0,.4-5.9,6.3-6.3,6.3H5.4c-.3,0-1.5-1.3-2.4-1V9.2c0-.4,5-5.3,5.3-5.3h19.9ZM15.5,8.7c-2.9.2-2.9,3-5.5.1l-2.3,1.3,1.8,2.1c.3,1.8-3.3,2.4-.4,4.2l2.1-1.8,2.3,1.3c4-.2.3-3,.3-3.9s2.2-1.6,1.6-3.4ZM26.2,8.7h-7.8c-.6,1.7,1.6,2.4,1.6,3.4s-3.7,3.7.3,3.9l2.3-1.3,2.1,1.8c3.1-2-.2-3.3-.2-4.4s2.2-1.6,1.6-3.4ZM11.7,20.4c-.6,4.7,10.6,3.2,10.6,1.5-2.6-2.8-7.3-1-10.6-1.5Z"/>
    <path class="st0" d="M26.2,8.7c.6,1.7-1.6,2.4-1.6,3.4s3.3,2.4.2,4.4l-2.1-1.8-2.3,1.3c-4-.2-.3-3-.3-3.9s-2.2-1.6-1.6-3.4h7.8Z"/>
    <path class="st0" d="M15.5,8.7c.6,1.7-1.6,2.4-1.6,3.4s3.7,3.7-.3,3.9l-2.3-1.3-2.1,1.8c-2.9-1.8.7-2.4.4-4.2l-1.8-2.1,2.3-1.3c2.6,2.9,2.6,0,5.5-.1Z"/>
    <path class="st0" d="M11.7,20.4c3.4.5,8-1.3,10.6,1.5,0,1.8-11.3,3.2-10.6-1.5Z"/>
  </g>
  <g>
    <path class="st0" d="M0,8.9V0h32v32H0v-4c0,0,.2.1.2.2,0,0,0-.2,0-.2,0-.2,0-.5-.2-.7V9.4c0,0,0-.1.1-.2,0-.1,0-.3,0-.5l-.2.2ZM9.1.2c-.2,0-.4,0-.6.2.2,0,.5,0,.6-.2ZM28.2.4h.4l-.2-.2c-.1,0-.2,0-.4,0,0,0,0,.2.1.2ZM8.3.4h-.2s-.2.2-.2.2c.2,0,.3,0,.4-.2ZM29.2.6c-.1-.2-.2-.3-.4-.2,0,.2.2.2.4.2ZM7.9.6c-.2,0-.3.1-.4.2,0,0,.2,0,.2,0s0,0,0-.1,0,0,0,0ZM29.9,1.1c0-.2-.2-.2-.3-.3s-.1-.2-.3-.2c0,0,0,.2.1.2s.1,0,.2,0,0,.1,0,.2.2,0,.2,0ZM7.4.9c-.2,0-.2,0-.3.2.2,0,.2,0,.3-.2ZM6.9,1.1c-.1,0-.2.1-.2.2-.7.5-1.3,1.3-1.9,1.8l-.3.4c.2,0,.2-.2.2-.2s.1,0,.2,0,0-.1,0-.2.1,0,.2,0c0,0,.2-.3.3-.4s.1,0,.2,0,0-.2,0-.2.1,0,.1,0,0-.1,0-.2.1,0,.2,0c0,0,.2-.2.2-.2s0-.1,0-.1.1,0,.2,0,0-.1,0-.2c0,0,.2,0,.3-.2ZM30.4,1.5c0,0-.3-.3-.4-.4s0,0,0,0c0,.1.2.2.3.3.2.2.2.4.4.6s0,0,.1.1,0,.2,0,.2h.2c0-.1-.1-.2-.2-.3-.2-.2-.3-.3-.4-.5ZM31.7,3.9c0,0,0-.2,0-.3s-.1-.1-.2-.2,0-.2,0-.4-.2-.2-.3-.5l-.2-.2c0,0,0,.2,0,.3s.2,0,.2,0c0,0,0,.3,0,.4s.2,0,.2.2c0,.2,0,.5.2.6ZM27.9,3s0,0,0-.1c-.1-.1-.6,0-.8,0H9.8c-.2,0-.4,0-.6,0s0,0-.1.2-.2,0-.3,0,0,.1-.1.2c-.1,0-.3.2-.4.3-.2.3-.5.5-.7.7s0,.1,0,.2-.1,0-.2,0,0,.1,0,.2c0,0-.3.2-.4.3s0,.1,0,.2-.2.2-.3.2c-.4.4-.7.7-1.1,1.1s-.6.5-.8.8-.3.3-.4.3,0,.1,0,.1-.1,0-.2.1c-.2.2-.8.8-1,1.1s0,.2,0,.3c0,.2-.2.3-.2.5v17.1c0,.2.1.3.2.4s0,.3,0,.4,0,0,.1.2,0,.2,0,.3.4.5.5.5.1,0,.2.1c.2.2,0,0,.3.2s0,.1.2.2c.1,0,.3,0,.4,0s0,.2.3.2h17.8c.2,0,.3-.2.4-.2s.3,0,.3,0,0-.1.1-.2.2,0,.2,0c0,0,.2-.3.3-.4.3-.2.5-.5.7-.7.4-.4.7-.7,1.1-1s0-.1.1-.2.1,0,.1,0,0-.1,0-.1.1,0,.2,0,0-.1,0-.2c0,0,.3-.2.4-.3s.2-.3.3-.4.1,0,.2-.1,0-.1,0-.2c0,0,.3-.2.4-.3s0-.1,0-.2.1,0,.2,0,0-.1,0-.2.1,0,.2,0,0-.1,0-.2,0,0,.1,0c.2-.2.2-.4.4-.5s0,0,.1,0c0-.1,0-.3.1-.4s.2,0,.2-.4V4.9c0-.2-.1-.3-.2-.4s0-.3,0-.4-.1-.1-.2-.2,0-.2,0-.3-.1,0-.1,0,0-.1-.1-.2-.1,0-.2,0,0-.1,0-.2c0,0-.3,0-.4-.1ZM4,4l-.4.3c-.7.8-1.5,1.4-2.2,2.2l-.5.6c.2,0,.2-.2.2-.2s.1,0,.1,0,0-.1,0-.2c0,0,.3-.2.4-.3s0-.2,0-.2,0,0,.1,0c0,0,0-.1.1-.2s.1,0,.2,0,0-.1,0-.2.1,0,.1,0,0-.1,0-.1c0,0,.1,0,.2,0s0-.1,0-.2.1,0,.2,0,0-.1,0-.2.1,0,.1,0,0-.1,0-.2.1,0,.2,0,0-.1,0-.2.1,0,.2,0,0-.1,0-.2c0,0,.2,0,.2-.2ZM31.9,21.9c0,0,0-.1,0-.2.1-.5,0-1.2,0-1.8,0-4.8,0-9.6,0-14.4,0-.2,0-.5-.2-.7v.8s0,16.2,0,16.2h0ZM.5,7.9c.2,0,.2-.2.2-.3l-.2.2h0ZM.2,8.5c0,0,.1,0,.2-.2s0-.3,0-.4c0,0,0,0,0,.1,0,.1-.2.1-.2.4s0,0,0,0ZM31.5,24.4c.1-.2.3-.3.2-.6-.2,0-.2.3-.2.5s0,.1,0,.1ZM30.6,25.8s0,0,.1,0c.3-.3.4-.6.6-.9s.1,0,.2-.2,0-.2,0-.3c-.2,0-.2.3-.2.4s-.1,0-.2.1c0,0,0,.2,0,.3s0,0-.1,0,0,.2-.1.2-.2.2-.2.2ZM3.6,31.9c.1,0,.3,0,.5,0-.2-.2-.4-.2-.6-.2,0,0,0-.1-.1-.2s-.3,0-.3,0,0-.1-.1-.2-.1,0-.2,0,0-.1-.1-.1-.2,0-.3-.1,0-.1-.1-.2-.1,0-.2,0c0,0-.2-.3-.3-.4s-.1,0-.2,0,0-.1,0-.2-.1,0-.1,0,0-.2-.1-.3-.1,0-.1-.1,0-.1,0-.2-.2,0-.2-.2,0-.2,0-.3-.2,0-.2-.1,0-.3,0-.4-.1,0-.2-.1c0,0,0,.2,0,.3s.1.1.2.2,0,.2,0,.3.1.1.1.2c0,0,0,.2.1.3s.1,0,.2.1,0,.2,0,.3.2.2.2.3c.4.5,1,.8,1.4,1.2s.4.3.4.3c.1,0,.2,0,.3,0s.2.1.2.2ZM25.8,30.7c.3-.2.4-.4.7-.6s.6-.5.5-.6c-.2,0-.2.2-.3.3s-.1,0-.1,0,0,.1,0,.1-.2,0-.2,0,0,.1,0,.2-.1,0-.1,0,0,.1-.1.2-.2,0-.2.2ZM25.1,31.2c-.2,0-.2,0-.3.2s-.3,0-.4.1,0,.1-.1.2c0,0-.3,0-.4,0l-.2.2c0,0,.2,0,.3,0s0-.1.1-.1.2,0,.3,0,0-.1.1-.2c.1,0,.4,0,.4-.3Z"/>
    <path d="M0,27.4c.2.2.2.4.2.7s0,.2,0,.2c0-.1,0-.2-.2-.2v-.6Z"/>
    <path d="M0,8.9l.2-.2c0,.2,0,.4,0,.5s-.1,0-.1.2v-.5Z"/>
    <path d="M27.9,3c0,0,.3,0,.4.1s0,.1,0,.2.1,0,.2,0,0,.1.1.2.1,0,.1,0c0,0,0,.2,0,.3s.1,0,.2.2,0,.2,0,.4.2.2.2.4v17.9c0,.3,0,.2-.2.4s0,.3-.1.4,0,0-.1,0c-.1.2-.2.4-.4.5s-.1,0-.1,0c0,0,0,.1,0,.2s-.1,0-.2,0,0,.1,0,.2-.1,0-.2,0,0,.1,0,.2c0,0-.3.2-.4.3s0,.1,0,.2-.1,0-.2.1c0,0-.2.3-.3.4s-.3.2-.4.3,0,.1,0,.2-.1,0-.2,0,0,.1,0,.1-.1,0-.1,0,0,.1-.1.2c-.4.3-.7.7-1.1,1s-.4.5-.7.7-.2.3-.3.4-.2,0-.2,0,0,.1-.1.2-.2,0-.3,0-.2.2-.4.2H4.9c-.2,0-.2-.1-.3-.2s-.3,0-.4,0,0-.1-.2-.2c-.2-.1-.1,0-.3-.2s-.1,0-.2-.1c0,0-.4-.4-.5-.5s0-.2,0-.3-.1,0-.1-.2c0-.1,0-.3,0-.4s-.2-.2-.2-.4V9.8c0-.2.1-.4.2-.5s0-.2,0-.3c.2-.3.7-.9,1-1.1s.1,0,.2-.1,0-.1,0-.1c0,0,.3-.3.4-.3.3-.3.5-.6.8-.8s.7-.7,1.1-1.1.2-.2.3-.2,0-.1,0-.2c0,0,.3-.2.4-.3s0-.1,0-.2.1,0,.2,0,0-.1,0-.2c.2-.2.5-.5.7-.7s.3-.2.4-.3,0-.1.1-.2.3,0,.3,0,0-.1.1-.2.4,0,.6,0h17.2c.2,0,.7,0,.8,0s0,0,0,.1ZM26.8,9.5c.1-.1.2-.2.3-.4,0,0,0-.2,0-.2,0-.2-.4-.5-.6-.6-.3-.3-.5-.5-.9-.8s0-.2-.2-.2-.1.1-.2.2-.1,0-.2,0,0,.1,0,.2-.1,0-.2,0,0,.1,0,.2-.1,0-.2,0c0,0-.2.3-.3.4s-.1,0-.1,0,0,.1,0,.2-.1,0-.2,0,0,.1,0,.1c-.2.2-.4.4-.6.6s0,.2-.1.2,0-.1-.1-.2c-.5-.5-1.1-1-1.6-1.5s-.2-.3-.3-.4-.1,0-.2-.1,0-.1-.1-.1-.2,0-.2,0c-.1,0-.1.1-.2.2-.4.4-.9.8-1.3,1.3s0,0-.1,0c0,0,0,.2,0,.3l2.4,2.3c0,0-.2.1-.2.1,0,0-.2.3-.3.4s-.2,0-.2,0c-.3.3-.5.6-.8.9s-.2.2-.2.2c-.2.1-.1.1-.2.2s-.1,0-.1,0,0,.1-.1.2-.1,0-.2,0c0,0,0,.4,0,.4s.1,0,.1.1,0,.1,0,.1.1,0,.2,0c0,0,.2.3.3.4.2.2.3.2.5.5s.2.2.2.2c.1.1.3,0,.5,0s0-.1.1-.2.1,0,.1,0c0,0,0-.1,0-.2,0,0,.3-.2.4-.3s0-.1,0-.2c.4-.4.9-.9,1.3-1.3s0,0,0-.1c.2-.2.2,0,.3.1.2.2.3.3.4.5s.3.3.4.3,0,.1,0,.1.1,0,.2,0,.2.2.3.3c.2.2.4.4.5.6s.1,0,.2,0,0,.1,0,.2.3,0,.4,0c0,0,.1-.2.2-.2s.1,0,.2,0,0-.1,0-.2,0,0,.1,0c0,0,.3-.3.4-.4s.3-.2.4-.3,0-.1,0-.2.1,0,.2,0,0-.2,0-.3c0-.1-.2-.1-.2-.2s0-.1,0-.2-.1,0-.2,0,0-.1,0-.2-.1,0-.2,0,0-.1,0-.2-.1,0-.2,0,0-.1,0-.2,0,0-.1,0c-.4-.3-.7-.7-1.1-1.1s-.2-.1-.2-.2c0,0,.2-.2.2-.3.3-.3.6-.6.9-.9s.6-.6.9-.9ZM15.6,10.1s.1,0,.2,0,0-.1,0-.2.1,0,.2,0c0,0,.2-.3.3-.4.1-.2.3-.1.2-.4l-1.6-1.6c0,.1-.3.2-.4.2s0,.1,0,.1-.1,0-.2.1,0,.1,0,.1c0,0-.1,0-.2,0s0,.1,0,.2-.1,0-.2,0,0,.1,0,.1c-.3.4-.8.7-1.1,1s0,.1,0,.2-.2.1-.2.1c0,0-.1-.1-.2-.2-.4-.4-.9-.9-1.3-1.3s-.5-.5-.8-.8,0-.1-.1-.1-.2,0-.2,0,0,0,0,0c-.4.3-1.1,1-1.4,1.5s-.1.1-.1.2l2.4,2.4c0,0,0,.2,0,.2s-.1,0-.2,0c0,0-.3.3-.4.4-.4.4-.7.7-1.1,1.1s-.2.3-.3.4-.1,0-.1,0,0,.1,0,.2-.2,0-.2.2.1,0,.2.1,0,.2,0,.2.1,0,.2,0,0,.1,0,.2c.2.2.3.3.5.5s.3.3.4.3,0,.1,0,.2c0,.1.3,0,.4.2,0-.1.2-.2.3-.3.6-.6,1.2-1.2,1.7-1.9s.1,0,.1,0,0-.2.1-.2c0,0,0,.1.1.2s.1,0,.2,0,0,.1,0,.2c0,0,.3.2.4.3s.3.4.4.4.1,0,.1,0,0,.1,0,.1.1,0,.2,0,0,.1,0,.2.1,0,.2,0,0,.1,0,.2.1,0,.1,0,0,.1,0,.2.1,0,.2,0,0,.1,0,.2.3,0,.4,0c.1,0,0-.2.1-.2.1-.1.3-.3.5-.5s.4-.4.6-.5.3-.3.3-.4,0-.3,0-.3-.1,0-.2-.1c-.2-.2-.6-.6-.8-.9s-.4-.3-.5-.5c-.3-.2-.5-.5-.7-.7s-.2-.1-.2-.1c0,0,.2-.1.2-.1s0,0,0-.1c.2-.2.5-.4.6-.6s0-.1,0-.2.1,0,.2,0,0-.1,0-.2.1,0,.2,0,0-.1,0-.2ZM13.4,19.5c-.4,0-.7.3-1,.6s-.1.5-.1.7c0,.3,0,1.1,0,1.3s.3.4.4.5c.1,0,.3.1.5.3,2.8,0,5.6,0,8.4,0,.1-.2.3-.1.4-.2s.2-.3.4-.4h0c0-.4,0-.7,0-1.1s0-.6,0-.8-.1-.1-.2-.2,0-.2-.1-.3-.2,0-.3-.1c-.2,0-.3-.2-.6-.2h-7.8Z"/>
    <path d="M31.9,21.9h0c0-.1,0-16.3,0-16.3v-.8c0,.2,0,.5.1.7,0,4.8,0,9.6,0,14.4s0,1.3,0,1.8,0,.1,0,.2Z"/>
    <path d="M3.6,31.9s0-.1-.2-.2-.2,0-.3,0-.4-.2-.4-.3c-.5-.4-1-.8-1.4-1.2s-.2-.3-.2-.3c0,0,0-.2,0-.3s-.1,0-.2-.1,0-.2-.1-.3-.1,0-.1-.2c0-.1,0-.2,0-.3s-.1,0-.2-.2,0-.2,0-.3c0,0,.2,0,.2.1,0,.1,0,.3,0,.4s.2,0,.2.1,0,.2,0,.3c0,.1.2.1.2.2s0,.1,0,.2,0,0,.1.1c0,0,0,.2.1.3s.1,0,.1,0,0,.1,0,.2.1,0,.2,0c0,0,.2.3.3.4s.1,0,.2,0,0,.1.1.2.2,0,.3.1,0,.1.1.1.1,0,.2,0,0,.1.1.2.3,0,.3,0,0,.1.1.2c.2,0,.5,0,.6.2-.1,0-.4,0-.5,0Z"/>
    <path d="M4,4c0,.2-.1.1-.2.2s0,.1,0,.2-.1,0-.2,0,0,.1,0,.2-.1,0-.2,0,0,.1,0,.2-.1,0-.1,0,0,.1,0,.2-.1,0-.2,0,0,.1,0,.2-.1,0-.2,0,0,.1,0,.1-.1,0-.1,0,0,.1,0,.2-.1,0-.2,0,0,.1-.1.2,0,0-.1,0,0,.1,0,.2c0,0-.3.2-.4.3s0,.1,0,.2-.1,0-.1,0c0,0,0,.3-.2.2l.5-.6c.7-.8,1.5-1.4,2.2-2.2l.4-.3Z"/>
    <path d="M6.9,1.1c0,.2-.2.1-.3.2s0,.1,0,.2-.1,0-.2,0,0,.1,0,.1c0,0-.2.2-.2.2s-.1,0-.2,0,0,.1,0,.2-.1,0-.1,0,0,.1,0,.2-.1,0-.2,0c0,0-.2.3-.3.4s-.1,0-.2,0,0,.1,0,.2-.1,0-.2,0c0,0,0,.2-.2.2l.3-.4c.7-.6,1.2-1.3,1.9-1.8s.1-.2.2-.2Z"/>
    <path d="M30.6,25.8s.1-.2.2-.2c0,0,0-.2.1-.2s0,0,.1,0c0,0,0-.2,0-.3s.1,0,.2-.1c0-.1,0-.3.2-.4,0,0,0,.2,0,.3s-.1,0-.2.2c-.2.3-.3.6-.6.9s-.1,0-.1,0Z"/>
    <path d="M31.7,3.9c-.3,0-.2-.4-.2-.6s-.2-.1-.2-.2c0,0,0-.4,0-.4s-.1,0-.2,0,0-.2,0-.3l.2.2c0,.2.2.3.3.5s0,.3,0,.4.1.1.2.2,0,.2,0,.3Z"/>
    <path d="M30.4,1.5c.2.2.3.3.4.5s.2.1.2.3h-.2c0-.1,0-.2,0-.3s-.1,0-.1-.1c-.1-.2-.2-.4-.4-.6s-.2-.1-.3-.3c0,0,0,0,0,0,0,0,.3.3.4.4Z"/>
    <path d="M9.1.2c0,.2-.4.3-.6.2.1-.2.3-.2.6-.2Z"/>
    <path d="M29.9,1.1s-.2,0-.2,0c0,0,0-.1,0-.2s-.1,0-.2,0,0-.2-.1-.2c.2,0,.2.1.3.2s.3.1.3.3Z"/>
    <path d="M31.5,24.4c0,0,0-.1,0-.1,0-.2,0-.4.2-.5,0,.3-.1.4-.2.6Z"/>
    <path d="M28.2.4c0,0-.1-.2-.1-.2.1,0,.3,0,.4,0l.2.2h-.4Z"/>
    <path d="M25.8,30.7c0-.1.1-.1.2-.2s0-.1.1-.2.1,0,.1,0,0-.1,0-.2.2,0,.2,0,0-.1,0-.1,0,0,.1,0c0,0,.1-.2.3-.3,0,.1-.4.5-.5.6-.2.2-.4.5-.7.6Z"/>
    <path d="M.2,8.5s0,0,0,0c0-.2,0-.2.2-.4s0-.1,0-.1c0,.1,0,.3,0,.4s-.1,0-.2.2Z"/>
    <path d="M25.1,31.2c0,.2-.3.2-.4.3s0,.1-.1.2-.2,0-.3,0,0,.1-.1.1c0,0-.2,0-.3,0l.2-.2c0,0,.3,0,.4,0s0-.1.1-.2c0,0,.3,0,.4-.1s0-.2.3-.2Z"/>
    <path d="M29.2.6c-.2,0-.3,0-.4-.2.2,0,.3,0,.4.2Z"/>
    <path d="M8.3.4c0,.2-.2.2-.4.2l.2-.2h.2Z"/>
    <path d="M7.4.9c0,.2,0,.2-.3.2,0-.1.1-.2.3-.2Z"/>
    <path d="M7.9.6s0,0,0,0,0,0,0,.1c0,0-.2,0-.2,0,0-.1.2-.2.4-.2Z"/>
    <path d="M.5,7.9h0c0-.1.2-.3.2-.3,0,.1,0,.3-.2.3Z"/>
    <path class="st0" d="M26.8,9.5c-.3.3-.6.6-.9.9s-.6.6-.9.9-.2.2-.2.3c0,.1.2.2.2.2.3.4.7.7,1.1,1.1s0,0,.1,0,0,.1,0,.2.1,0,.2,0,0,.1,0,.2.1,0,.2,0,0,.1,0,.2.1,0,.2,0,0,.1,0,.2c0,0,.2,0,.2.2s0,.3,0,.3-.1,0-.2,0,0,.1,0,.2c0,0-.3.2-.4.3s-.3.3-.4.4-.1,0-.1,0,0,.1,0,.2-.1,0-.2,0,0,.2-.2.2-.3,0-.4,0,0-.1,0-.2-.1,0-.2,0c-.2-.2-.4-.4-.5-.6s-.2-.2-.3-.3c0,0-.1,0-.2,0s0-.1,0-.1c0,0-.3-.3-.4-.3-.2-.2-.3-.3-.4-.5s0-.3-.3-.1,0,0,0,.1c-.4.4-.9.9-1.3,1.3s0,.1,0,.2c0,0-.3.2-.4.3s0,.1,0,.2,0,0-.1,0c0,0,0,.2-.1.2-.2,0-.3,0-.5,0s-.2-.2-.2-.2c-.1-.2-.3-.3-.5-.5s-.2-.3-.3-.4-.1,0-.2,0,0-.1,0-.1-.1,0-.1-.1,0-.4,0-.4.1,0,.2,0,0-.1.1-.2.1,0,.1,0c.1-.1,0-.1.2-.2s.1-.2.2-.2c.3-.3.5-.6.8-.9s.1,0,.2,0c0,0,.2-.3.3-.4s.2,0,.2-.1l-2.4-2.3c0,0,0-.2,0-.3s0,0,.1,0c.4-.5.9-.9,1.3-1.3s0-.2.2-.2.2,0,.2,0c0,0,0,0,.1.1s.1,0,.2.1c0,0,.2.3.3.4.5.5,1,1,1.6,1.5s0,.2.1.2,0-.1.1-.2c.2-.2.4-.4.6-.6s0-.1,0-.1.1,0,.2,0,0-.1,0-.2,0,0,.1,0c0,0,.2-.3.3-.4s.1,0,.2,0,0-.1,0-.2.1,0,.2,0,0-.1,0-.2.1,0,.2,0c0,0,0-.2.2-.2s.1.1.2.2c.3.2.6.5.9.8s.5.4.6.6,0,.2,0,.2c-.1.1-.2.2-.3.4Z"/>
    <path class="st0" d="M15.6,10.1s0,.1,0,.2-.1,0-.2,0,0,.1,0,.2-.1,0-.2,0,0,.1,0,.2c-.2.2-.4.4-.6.6s0,.1,0,.1-.2,0-.2.1.1.1.2.1c.2.3.5.5.7.7s.4.3.5.5c.2.3.5.6.8.9s.1,0,.2.1,0,.2,0,.3-.2.3-.3.4c-.2.2-.4.4-.6.5s-.4.3-.5.5,0,.2-.1.2-.3,0-.4,0,0-.1,0-.2-.1,0-.2,0,0-.1,0-.2-.1,0-.1,0,0-.1,0-.2-.1,0-.2,0,0-.1,0-.2-.1,0-.2,0,0,0,0-.1-.1,0-.1,0c0,0-.3-.3-.4-.4s-.3-.2-.4-.3,0-.1,0-.2-.1,0-.2,0,0-.1-.1-.2c0,0,0,.2-.1.2s-.1,0-.1,0c-.5.6-1.2,1.3-1.7,1.9s-.3.2-.3.3c-.1-.1-.3,0-.4-.2s0-.1,0-.2c0,0-.3-.3-.4-.3-.2-.2-.3-.3-.5-.5s0-.1,0-.2-.1,0-.2,0,0-.2,0-.2-.1,0-.2-.1.2-.2.2-.2,0-.1,0-.2.1,0,.1,0c0,0,.2-.3.3-.4.4-.4.7-.7,1.1-1.1s.3-.3.4-.4.1,0,.2,0,0-.2,0-.2l-2.4-2.4c0,0,.1-.1.1-.2.3-.5.9-1.1,1.4-1.5s0,0,0,0,.2,0,.2,0c0,0,0,0,.1.1.3.2.5.5.8.8.4.4.9.9,1.3,1.3s0,.2.2.2.2,0,.2-.1c0,0,0-.1,0-.2.3-.4.8-.7,1.1-1s0-.1,0-.1.1,0,.2,0,0-.1,0-.2.2,0,.2,0,0,0,0-.1c0,0,.1,0,.2-.1s0,0,0-.1c0,0,.3-.1.4-.2l1.6,1.6c0,.3,0,.3-.2.4s-.3.3-.3.4-.1,0-.2,0,0,.1,0,.2-.1,0-.2,0Z"/>
    <path class="st0" d="M13.4,19.5h7.8c.2,0,.4,0,.6.2s.3,0,.3.1,0,.2.1.3.1,0,.2.2c0,.2,0,.6,0,.8,0,.3,0,.7,0,1h0c-.2.2-.2.4-.4.5s-.3,0-.4.2c-2.8,0-5.6,0-8.4,0-.1-.1-.4-.2-.5-.3s-.4-.4-.4-.5c-.1-.2,0-1,0-1.3s0-.6.1-.7c.3-.3.6-.5,1-.6Z"/>
  </g>
</svg>