<?xml version="1.0" encoding="UTF-8"?>
<svg id="Layer_1" xmlns="http://www.w3.org/2000/svg" version="1.1" viewBox="0 0 1296 1728">
  <!-- Generator: Adobe Illustrator 29.1.0, SVG Export Plug-In . SVG Version: 2.1.0 Build 142)  -->
  <defs>
    <style>
      .st0 {
        fill: #fff;
      }
    </style>
  </defs>
  <path class="st0" d="M1053,364v1000H243V364h810ZM664.2,496.4c-69.4-4.1-141.2,13.6-201.2,48.1-8.9,5.1-18,10.4-25.2,17.6,4-1.9,8.7-2,12.5.4-.7.7-1.3,1.4-2.1,2.1-5.1,4.5-16.7,13.8-22.3,16.8s-11.5,5.2-13,5.3c-2.6,0-5-4-7.8-2l-25.1,24.9c-1.9-1.4.3-1.5.5-1.8,3.8-4.7,15.3-15.2,16.3-20.5s-.2-4.5.2-6.5c.8-4.4,7.2-4.4,10.8-4.6.8-3.5-3.2,0-4.2-.8l2.2-3.2,4.4,1.6c-1.6-6.3-11.6-5.5-10,1.7-2.7.7-.7-2.5-3.6-1.5s-7.3,5.6-8.4,6.6c-11.8,9.9-25.4,22.6-35.8,34.1-7.5,8.2-14.2,18.6-21.6,26.7s-9.2,7.4-10.8,10-1.3,5-2.1,5.4c-1.3.9-4.2-.4-5.5,1.2s-2.2,7.1-3.3,9.2c-2.3,4.7-11.7,20.5-14.7,24.4s-7.7,4.8-9.4,8.1-2.6,9-4,12.6c-2.7,6.7-5.7,14.8-8.8,21.2s-3.9,5-4.2,5.9c-.8,2.8,1.7,6.5,1.1,9.4-.6,1-4.8.2-5.8,0s-1.4.6-1.2-1.2c.7-6,5.3-18,7.4-24.2s8.5-18.1,9.8-24.3.3-2.4.2-3.5c-1.3-.3-1.3.1-2,.9-3.1,3.8-8.9,20.3-10.9,25.8-55.2,154.2-.3,321.3,127,419.9,157,121.6,396.6,122.9,547.7-9.9,9-7.9,17.4-18.3,25-25.7,1.3-1.3,1.3-2.9,1.9-3.6,1.1-1.2,4.2-3.8,5.5-4.5l-1.2-1.6c-2.3.7-3.8,3.5-5.7,4.3s-3,.4-4.2.8c-2.7,1.1-5.1,3.9-9,3.1v-2c13.5-13.3,24.1-28.5,36.6-42.6,3.3-7.5,13.3-15.2,14.2-23.3,1.5-13.2,7-34.3,13.8-46.1s4.2-4.5,5.1-6.5c3.6-8.3,5-26.5,6.6-35.8s1.6-7.3,1.9-11c-5.6.4-2.1,7.3-3.7,10-1.3.5-2.8.3-4.3.6-2.5.4,0-2.4.4-3.8,3.8-13.7,9-30.7,9.4-44.7s-.1-4.8,0-7.1l-2.4.9c1.1,1.1-2.5,9.1-3,9.1-5.2-3.2-4.3-12.3-3.6-17.8s4.4-12,4.9-19.2-1.6-14.5-1.7-21.6c-.2-8,1.8-16.2.9-24.2-.4-3.7-2.2-4.9-3.1-7.7-2-6.5-2.8-15.4-4.5-22.2-14.9-59.5-37.2-104.1-74-152.4-.9-1.2-3.3-2.8-3.7-3.8-1.3-3.2-.6-8.3-.4-11.6l2.5,1.7c1.2-5.3-2-4.1-3.7-5.8s-1.1-3.4-2.4-5-4.3-1.9-5.4-2.9-.9-3-1.6-4c-2.4-3.2-14.1-14.2-17.6-15.2s-10.1,2.3-14,.3l-.9-3.9c5.1-3.2,3.5-.9,6.1,1.6s1,.6,2.1-.4c-1.7-.7-2.1-5-2.6-5.3s-2.3.2-3-.2c-1.1-.7-2.9-8.2-8.5-4.9,0-1.6,0-3.4-1.1-4.8s-11.9-9.2-14-10.6c-30.7-21.4-87.7-47.5-124.4-53.7-1.5-.3-3,0-4.5,0l1.7,2.5h-5c.7-1.5,1.2-2.2-.4-3.3-2.4,2.1-5.9,2.1-8.8,1.3v-2.1c0,0-14.1.8-14.1.8l2.5-1.7c.2-1.1-.3-.8-1.3-.9-2.9,0-5.7,1.3-8.7.9l.8,3.3c-6.4,2.6-12.7-.4-18.7-.8s-12.3.7-18.3-.9l-41.2-1.6,3.9-3.3c3.5-.4,11.3,0,14.2-1.4s.9-2.6,1.8-3.2c1.5-1,5.1.6,5.9-2ZM690.9,498.9h-1.7v.8h1.7v-.8ZM442,563h-2.5v.8h2.5v-.8ZM1044.7,911.9h5.3c0-.1,1.2-1.4,1.2-1.4.3-4.3,1-10-3.6-11.9-2.1.1-3.2,11.1-2.9,13.3ZM1049.7,916c-5.8-1-4.4.9-6.4,3.3-3.8,4.5-1.6,3-3,7.8s-3.5,5.6-2.1,7.9,6.7,2.5,3.9,6.8l-2.5-.5c-2.2,1.4,0,7.9-.2,9.9s-1.8,4.3-2.2,7c-.5,4.4,0,10.3,1.6,14.4,1.2.2,1.2-1.5,1.4-2.3,2.3-9.5,2.2-22.1,4.6-31.2,1.2-4.6,7.1-9.9,5.4-15.8s-4.2-3.7-.6-7.3ZM1034.7,929.4h-1.7s0,1.2,0,1.2l1.2,1.3.4-2.5ZM993.9,1074.2c.8,1,6-4.6,6.7-5.4,5.3-6,9.5-12.8,13.8-19.5s5.9-5.1,5.4-10c-.2-.2-2.1,1-2.5,1.4-4.5,4.8-9.4,14.3-13.8,20.1s-11.2,11.3-9.5,13.4Z"/>
  <path d="M664.2,496.4c-.8,2.6-4.4,1-5.9,2s-.2,2.5-1.8,3.2c-2.9,1.3-10.7,1-14.2,1.4l-3.9,3.3,41.2,1.6c6,1.5,12.2.5,18.3.9s12.3,3.4,18.7.8l-.8-3.3c3,.4,5.8-.9,8.7-.9s1.5-.3,1.3.9l-2.5,1.7,14.2-.8v2.1c2.9.9,6.4.8,8.7-1.3,1.6,1.1,1.1,1.8.4,3.3h5s-1.7-2.5-1.7-2.5c1.5,0,3.1-.2,4.5,0,36.8,6.2,93.7,32.3,124.4,53.7,2,1.4,13.1,9.5,14,10.6s1.1,3.1,1.1,4.8c5.6-3.4,7.4,4.2,8.5,4.9s2.4-.2,3,.2,1,4.6,2.6,5.3c-1,1.1-.8,1.6-2.1.4-2.7-2.5-1.1-4.8-6.1-1.6l.9,3.9c3.9,2.1,10.8-1.2,14-.3s15.2,12,17.6,15.2.4,2.9,1.6,4,3.6.8,5.4,2.9,1.4,4,2.4,5c1.8,1.8,4.9.5,3.7,5.8l-2.5-1.7c-.2,3.4-.9,8.5.4,11.6s2.8,2.6,3.7,3.8c36.9,48.4,59.2,93,74,152.4,1.7,6.8,2.5,15.7,4.5,22.2s2.7,4,3.1,7.7c.9,8-1.1,16.2-.9,24.2.2,7.1,2.3,14.1,1.7,21.6s-4.2,12.9-4.9,19.2-1.6,14.6,3.6,17.8c.5,0,4-7.9,3-9.1l2.4-.9c0,2.4.1,4.7,0,7.1-.4,14.1-5.6,31-9.4,44.7s-2.9,4.1-.4,3.8,3,0,4.3-.6c1.7-2.8-1.9-9.6,3.7-10-.3,3.7-1.3,7.3-1.9,11-1.6,9.3-3,27.6-6.6,35.8s-3.9,4.4-5.1,6.5c-6.8,11.9-12.3,32.9-13.8,46.1-.9,8.1-10.8,15.8-14.2,23.3-12.5,14.1-23.1,29.3-36.5,42.6v2c3.8.8,6.1-2,8.8-3.1s2.7-.2,4.2-.8,3.4-3.6,5.7-4.3l1.2,1.6c-1.4.6-4.5,3.3-5.5,4.5s-.6,2.3-1.9,3.6c-7.6,7.4-16,17.8-25,25.7-151.1,132.8-390.6,131.5-547.7,9.9-127.3-98.6-182.2-265.7-127-419.9,2-5.5,7.8-22,10.9-25.8s.7-1.2,2-.9c0,1.2,0,2.4-.2,3.5-1.3,6.2-7.3,17.4-9.8,24.3s-6.8,18.2-7.4,24.2.1,1,1.2,1.2,5.2,1.1,5.8,0c.6-2.9-1.9-6.6-1.1-9.4s3.2-3.8,4.2-5.9c3.1-6.3,6.1-14.5,8.8-21.2,1.5-3.6,2.5-9.7,4-12.6s7.3-5.3,9.4-8.1,12.5-19.8,14.7-24.4,2.5-8.3,3.3-9.2c1.3-1.6,4.1-.3,5.5-1.2s1.1-3.8,2.1-5.4c1.6-2.6,8-7,10.8-10,7.4-8.1,14.1-18.4,21.6-26.7,10.4-11.5,24-24.2,35.8-34.1s7.9-6.4,8.4-6.6c2.9-1,.9,2.2,3.6,1.5-1.6-7.1,8.4-7.9,10-1.7l-4.4-1.6-2.2,3.2c.9.8,4.9-2.7,4.2.8-3.6.2-10,.2-10.8,4.6s.2,4.2-.2,6.5c-1.1,5.3-12.5,15.8-16.3,20.5s-2.4.4-.5,1.8l25.1-24.9c2.8-2,5.2,2.1,7.8,2s11.1-4.3,13-5.3c5.6-3,17.2-12.4,22.3-16.8s1.4-1.3,2.1-2.1c-3.7-2.4-8.4-2.3-12.5-.4,7.3-7.3,16.4-12.5,25.2-17.6,60-34.5,131.8-52.3,201.2-48.1ZM484.4,542.2c-.5,0-6.4,1.9-5,3.3l5-3.3ZM466.9,552.2h-1.7v.8h1.7v-.8ZM761.6,553.8l-6.7,1.7c-.2.2.4,1,.8,1.2,4.9,2.7,18.3,5.6,24.6,7.9,56.5,20.5,108.9,54.5,145.2,102.9l14.2-8.4c-3.2-2.3-6.9-9.9-9.4-11.8s-4.6-1-6.5-3.1-1.5-4.9-3.3-7.5-12.2-11.7-15.8-15-18.7-17.2-22.6-19.1-7.8-1.2-11.5-3.1v-5.7c-2.3.8-7.5.2-9.3-1.3s-1.4-4.9-1.8-5.3-3.1-.3-4.9-1.4c-2.8-1.7-4.1-5.9-7.2-7.8-7.1-4.3-18.6-2.3-26.5-5.2s-6-6.2-12.7-7.2-12.8-.3-18.5.6l1.7-5c-7.7.9-13.6-4.9-21.6-3.3l.8-3.3c-4.2.4-5,4.4-10,2.5l.8-3.3ZM350.4,651.3c-2.4-2.7,16-25.9,18.7-29.2s9-9.2,9.6-10.4.2-1.4-.4-1.2c-24,22.1-43.2,49.3-58.3,78.2-87.6,167.5-15.7,360.4,142.2,452.3,84.1,48.9,188.5,64.2,283.8,43.7,40.9-8.8,82.3-23.1,118.1-44.7-3.9-2.4-1.6-3.8-2.5-7.5l-3,4.1c-5.6-1.3-9.2-4.8-15.3-2.5l2.5,4.1c-6.6-1.5-6.2,2.2-9.7,4.9-13.4,10-55.7,23.7-72.9,28.7-72.1,20.9-159.6,14.1-230.6-8.8s-49.2-22.4-55.1-22.3-4.1,1.3-6.3.9c5.3-6.1-5.4-7.2-9.4-9.3-17.4-9.3-32.2-24.9-48.6-35.9l-1.1-3.1-4.1,1.7c1.9-6-1.3-4.2-3.7-5.9s-1.1-2.7-2.2-3.7-3.3-1.3-4.9-2.6c-2.9-2.5-6.7-7.6-10.5-11.2-10.1-9.6-20.2-22.6-28.6-33.9-40.8-55.2-66.2-123.4-65.9-192.6h-2.5c.9,7.3,2.3,14.7,1.7,22.1s.2,2.7-1.3,3.7c-2,.4-1.2-1.6-1.2-2.9-.3-8.8-3.3-14.7-4.1-22.6-2.2-22.2,2-49.2,7.3-70.8,6.4-26.4,16.5-51.7,26.3-76.9,5.4-3.1,4.3,5.2,7.1,7.5,10.2-18.5,21-37.2,33.8-54.1s12.8-13.3,13.7-16.3-4.8,1.6-5.5,2c-2.8,1.4-6.5,2.8-9.4,4.3l1.7,5c-6.5-1.7-4.9,3.6-9.2,5ZM423.6,660v52.9c-14.8-4.3-27.1-8.7-42.9-7.5-26,1.9-48.5,22.4-55.3,47.1-16.6,60.1,50.9,101.7,99,66.1v17.5l24.1.8,1.7-22.9c1.4-37.9-1.9-77.2,0-115s5.2-34.2,1.2-41.1-1.2-1.4-2.5-1.7c-2.2-.4-11.3.6-14,.9s-10.8,1.3-11.3,2.8ZM794.1,834.4l2.5-164.4c-1.1-5.7-13.3-2.9-17.9-2.9s-11.4-3.2-12.1,2.8l1.7,49.6c-7.6-1.6-13.2-7.3-20.4-10-26.3-10-57.1-1.3-75.3,19.6-40.1,46,.6,116.9,60.2,107.7,12.9-2,22.6-9.8,33.8-15.7.9,1.2-4.2,13-.3,14.1l27.8-.8ZM846.5,777.8h113.6l1.2-1.2v-16.7c0-1.5-1.7-8.2-2.3-10.2-9.8-37.1-46.7-54.2-83-49.2-76,10.5-77.1,119.1-3.1,132.7s59.5-4.6,80.8-28.4l-24.6-12.7c-25.4,27.5-70.7,23.8-82.8-14.4ZM491.9,705.4v92c0,7.5,9.3,20.2,15,25,31.2,26.6,110.8,25.8,118.1-24.3s5.5-66.1,1.7-88.1-.7-3.4-2-4.7h-27.1v88.7c0,.5-5,7.4-5.9,8.3-13.1,14.8-45.5,15.5-61.2,4.6s-10.3-50.5-9.5-69.5c.4-10.9-.4-22,0-32.9l-29.1.8ZM529.4,712l-7.5.8c1.8.3,8,2.6,7.5-.8ZM263.8,760.3l-1.7-9.2-1.3.8c-1.6,12.4-7.5,26.9-8.4,39.1s.8,4.4.5,6.7c5.8-2.7,1.5-8.5,1.7-13.6.4-7.5,5.8-16.7,5.8-24.7l3.3.8ZM511.1,845.3v130.3c3.5,2.1,16.9,4,20,1.7s.4-9.5.8-12.1c22.9,19.3,63.6,17.3,78.7-10.8,23-43-14.3-88.4-61.2-73.7-7.8,2.5-13.8,8.3-21.7,10.4.5-7.2,2.2-14.9,2.5-22s.6-17.4-.4-20.5c-1.5-4.5-14.8-4.8-18.8-3.3ZM834.9,874.4h-19.6c-5.8,0-18.3,34-28.3,34.1-3.3,0-15.3-19.9-18-23.6s-4.4-6.6-6.7-8.3c-6.9-5.1-16.2-.5-23.9-.6l.8,3,39.2,47.5-34.1,49.2c-.5,1.5,1.2,1.5,2.2,1.8,5.1,1.1,13.9,1.7,18.7,0,4.8-1.6,14.7-22.7,18.6-28s7-10.9,11.6-5.9l24.2,32.4c7.9,2.7,16.3-.6,24.5,0l-40.7-50.5,31.5-51.1ZM687.4,876.3c-67.3,2.7-72.5,102.7,1.4,102.2s68.3-105-1.4-102.2ZM985.6,916.9c-35.9-.8-72,1-107.8,0s-8.2-2.7-10.4.8c23.4,1.6,46.9,2.1,70.4,1.7,9.8-.2,20.1-.5,30-.8,1.8,0,3.4-.8,5-.9,3.3-.2,6.7.1,10,0s3.1.6,2.9-.8ZM1022.3,960.9c5.2-.7,3.6-7.7.3-9.9l-2.9,7.1,2.5,2.8ZM478.2,951.8c-.5.5-1.3,1-1.6,1.7-1.4,3,1.5,15,.6,19.4.9,3.3,3,3.7,6,4s17.8.5,19.2-1.7c.3-4.4,2.5-23.3-4.2-23.3h-20ZM654.7,1113.4c4.9.7,11.1-.5,16.2,0l-16.2-2.6-2.9,1.7c1.2-.3,2.2.7,2.9.8ZM879,1110.9c-.7-.7-3.3,1.6-4.1,2.2-3.5,2.4-10.7,7.8-13.5,10.7s-2,1.9-1.6,3.8c3.8-1.6,8.3-2.7,10.7-6.4s.3-5.4,6.8-4.5c-1.5-2.4.8-3.7,1.7-5.8Z"/>
  <path d="M1049.7,916c-3.6,3.6,0,4.6.6,7.3,1.6,5.9-4.2,11.2-5.4,15.8-2.4,9.1-2.3,21.7-4.6,31.2s-.2,2.5-1.4,2.3c-1.5-4.1-2.1-10-1.6-14.4.3-2.6,1.9-5.4,2.2-7s-2-8.5.2-9.9l2.5.5c2.8-4.3-3.1-5.4-3.9-6.8-1.4-2.4,1.5-5.7,2.1-7.9,1.4-4.8-.8-3.3,3-7.8s.6-4.3,6.4-3.3ZM1046.3,921l-.4-2.5-1.2,1.2,1.6,1.2Z"/>
  <path d="M993.9,1074.2c-1.7-2.1,7.8-11.1,9.5-13.4,4.4-5.8,9.3-15.3,13.8-20.1s2.4-1.7,2.5-1.4c.5,4.9-3.4,7-5.4,10-4.3,6.7-8.4,13.6-13.8,19.5s-5.9,6.4-6.7,5.4Z"/>
  <path d="M1044.7,911.9c-.3-2.2.8-13.2,2.9-13.3,4.6,1.9,3.9,7.7,3.6,11.9l-1.2,1.2h-5.3Z"/>
  <polygon points="1034.7 929.4 1034.3 931.9 1033 930.6 1033 929.4 1034.7 929.4"/>
  <rect x="439.5" y="563" width="2.5" height=".8"/>
  <rect x="689.2" y="498.9" width="1.7" height=".8"/>
  <path class="st0" d="M794.1,834.4l-27.8.8c-3.9-1.1,1.2-12.9.3-14.1-11.2,5.9-20.9,13.7-33.8,15.7-59.6,9.2-100.3-61.7-60.2-107.7,18.2-20.9,49-29.6,75.3-19.6,7.2,2.7,12.8,8.4,20.4,10l-1.7-49.6c.7-6.1,8.1-2.8,12.1-2.8s16.8-2.8,17.9,2.9l-2.5,164.4ZM760.5,801.7c.8-.9,2.5-3.1,3-4.1,4-8.1,4.1-35.6,3.2-45.2-1.8-19.7-41.1-24-55.5-18.9-39.5,14-33.5,76,7.6,79.3s32.4-1.2,41.8-11.1Z"/>
  <path class="st0" d="M846.5,777.8c12.1,38.2,57.4,41.9,82.8,14.4l24.6,12.7c-21.3,23.8-48.9,34.2-80.8,28.4-74-13.7-73-122.3,3.1-132.7,36.3-5,73.1,12.1,83,49.2.5,2,2.3,8.8,2.3,10.2v16.7l-1.2,1.2h-113.6ZM926.5,755.3c1.1-44.5-72.9-40.4-75.8,0h75.8Z"/>
  <path class="st0" d="M423.6,660c.5-1.5,9.4-2.6,11.3-2.8,2.8-.3,11.9-1.3,14-.9s1.8.6,2.5,1.7c4,7-.8,32.1-1.2,41.1-1.8,37.8,1.4,77,0,115l-1.7,22.9-24.1-.8v-17.5c-48.1,35.6-115.6-6-99-66.1,6.8-24.7,29.3-45.2,55.3-47.1,15.8-1.2,28.1,3.3,42.9,7.5v-52.9ZM387.7,728.9c-54.4,4.1-49.4,89.4,6.3,82.9,10.6-1.2,29.1-12.2,30.5-23.6s1.6-26.1.9-36.7-.5-10.8-6.4-15.2-22.2-8.1-31.2-7.4Z"/>
  <path class="st0" d="M491.9,705.4l29.1-.8c-.4,10.9.4,22,0,32.9-.7,19-8.5,56.9,9.5,69.5s48.1,10.2,61.2-4.6,5.9-7.8,5.9-8.3v-88.7h27.1c1.3,1.2,1.7,3,2,4.7,3.8,22,1.6,65.5-1.7,88.1-7.4,50-86.9,50.9-118.1,24.3-5.6-4.8-15-17.5-15-25v-92Z"/>
  <path class="st0" d="M350.4,651.3c4.3-1.4,2.6-6.7,9.2-5l-1.7-5c2.9-1.5,6.7-2.9,9.4-4.3s6.5-5.3,5.5-2-11,12.8-13.7,16.3c-12.8,16.8-23.6,35.5-33.8,54.1-2.8-2.3-1.6-10.6-7.1-7.5-9.9,25.2-19.9,50.6-26.3,76.9-5.3,21.6-9.5,48.6-7.3,70.8s3.7,13.8,4.1,22.6-.8,3.3,1.2,2.9c1.5-1,1.2-2.2,1.3-3.7.6-7.4-.8-14.8-1.7-22.1h2.5c-.3,69.2,25.2,137.4,65.9,192.6,8.3,11.3,18.4,24.2,28.6,33.9s7.6,8.6,10.5,11.2,3.9,1.8,4.9,2.6.8,2.7,2.2,3.7c2.4,1.7,5.6-.1,3.7,5.9l4.1-1.7,1.1,3.1c16.4,11,31.2,26.6,48.6,35.9s14.7,3.2,9.4,9.3c2.2.5,4.3-.8,6.3-.9,6,0,44.3,18.8,55.1,22.3,71,22.9,158.5,29.7,230.6,8.8,17.2-5,59.5-18.7,72.9-28.7,3.5-2.6,3.1-6.4,9.7-4.9l-2.5-4.1c6.1-2.4,9.7,1.1,15.3,2.5l3-4.1c.9,3.7-1.4,5.1,2.5,7.5-35.8,21.6-77.2,35.9-118.1,44.7-95.3,20.5-199.6,5.2-283.8-43.7-157.9-91.9-229.8-284.8-142.2-452.3,15.1-28.9,34.3-56.1,58.3-78.2.6-.1.6.9.4,1.2-.5,1.2-7.9,8.4-9.6,10.4-2.7,3.2-21.1,26.5-18.7,29.2Z"/>
  <path class="st0" d="M511.1,845.3c3.9-1.5,17.3-1.2,18.8,3.3s.6,16.4.4,20.5c-.4,7.1-2,14.8-2.5,22,7.9-2.1,13.9-7.9,21.7-10.4,46.8-14.7,84.2,30.7,61.2,73.7s-55.7,30.2-78.7,10.8c-.5,2.6,1,10.7-.8,12.1-3.1,2.3-16.5.4-20-1.7v-130.3ZM560.9,893.8c-34.3,2-42,51.8-11.7,63.7,28.3,11.2,52.1-3.9,48.4-35.1-1.8-15.8-21.4-29.5-36.7-28.6Z"/>
  <path class="st0" d="M687.4,876.3c69.7-2.8,78.8,101.7,1.4,102.2s-68.8-99.5-1.4-102.2ZM663.7,951.5c17.4,17.4,53.3,13.8,60.1-13,7.5-29.8-16.9-51.9-46.1-43.6-23.2,6.6-30.9,39.7-14,56.6Z"/>
  <path class="st0" d="M834.9,874.4l-31.5,51.1,40.7,50.5c-8.1-.7-16.5,2.6-24.5,0l-24.2-32.4c-4.6-4.9-9,2.3-11.6,5.9-3.8,5.4-13.8,26.4-18.6,28-4.9,1.7-13.7,1.1-18.7,0s-2.8-.3-2.2-1.8l34.1-49.2-39.2-47.5-.8-3c7.7,0,17-4.4,23.9.6s4.9,5.9,6.7,8.3c2.8,3.7,14.8,23.5,18,23.6,10-.1,22.6-34.1,28.3-34.1h19.6Z"/>
  <path class="st0" d="M761.6,553.8l-.8,3.3c5,1.9,5.8-2.1,10-2.5l-.8,3.3c8.1-1.6,13.9,4.2,21.6,3.3l-1.7,5c5.7-.9,12.7-1.4,18.5-.6s7.4,5.3,12.7,7.2c7.9,2.8,19.3.9,26.5,5.2,3.2,1.9,4.4,6,7.2,7.8s4.7,1.2,4.9,1.4c.4.4-.2,3.6,1.8,5.3s6.9,2.1,9.1,1.3v5.7c3.7,1.9,8,1.4,11.6,3.1s18.4,15.3,22.6,19.1,13.7,11.8,15.8,15,1.5,5.6,3.3,7.5,4.8,1.8,6.5,3.1c2.5,2,6.2,9.6,9.4,11.8l-14.2,8.4c-36.3-48.4-88.7-82.4-145.2-102.9-6.3-2.3-19.7-5.2-24.6-7.9s-1.1-1-.8-1.2l6.7-1.7Z"/>
  <path class="st0" d="M478.2,951.8h20c6.7,0,4.5,19,4.2,23.3-1.4,2.2-16.1,2-19.2,1.7s-5.2-.6-6-4c.9-4.3-2-16.4-.6-19.4s1.1-1.1,1.6-1.7Z"/>
  <path class="st0" d="M985.6,916.9c.2,1.5-1.9.8-2.9.8-3.3.1-6.7-.2-10,0s-3.2.8-5,.9c-9.9.3-20.2.7-30,.8-23.5.4-47-.1-70.4-1.7,2.2-3.5,7.2-.9,10.4-.8,35.9,1,71.9-.8,107.8,0Z"/>
  <path class="st0" d="M879,1110.9c-.8,2.1-3.2,3.5-1.7,5.8-6.5-1-4.7,1.3-6.8,4.5s-6.9,4.7-10.7,6.4c-.3-1.9.5-2.6,1.6-3.8,2.8-2.9,9.9-8.3,13.5-10.7s3.3-2.8,4.1-2.2Z"/>
  <path class="st0" d="M263.8,760.3l-3.3-.8c0,8-5.4,17.2-5.8,24.7s4.1,10.9-1.7,13.6c.3-2.3-.6-4.5-.5-6.7.9-12.2,6.7-26.7,8.4-39.1l1.3-.8,1.7,9.2Z"/>
  <path class="st0" d="M1022.3,960.9l-2.5-2.8,2.9-7.1c3.3,2.2,4.9,9.2-.3,9.9Z"/>
  <path class="st0" d="M654.7,1113.4c-.7,0-1.8-1.2-2.9-.8l2.9-1.7,16.2,2.6c-5.1-.5-11.3.7-16.2,0Z"/>
  <path class="st0" d="M529.4,712c.5,3.4-5.7,1.1-7.5.8l7.5-.8Z"/>
  <path class="st0" d="M484.4,542.2l-5,3.3c-1.4-1.4,4.4-3.3,5-3.3Z"/>
  <rect class="st0" x="465.3" y="552.2" width="1.7" height=".8"/>
  <polygon class="st0" points="1046.3 921 1044.7 919.8 1045.9 918.5 1046.3 921"/>
  <path d="M760.5,801.7c-9.3,9.9-28.9,12.2-41.8,11.1-41.2-3.3-47.1-65.3-7.6-79.3,14.4-5.1,53.7-.8,55.5,18.9.9,9.6.8,37.1-3.2,45.2s-2.2,3.3-3,4.1Z"/>
  <path d="M926.5,755.3h-75.8c2.9-40.4,76.9-44.5,75.8,0Z"/>
  <path d="M387.7,728.9c9-.7,23.8,1.9,31.2,7.4s6,8.1,6.4,15.2c.7,10.6.4,26.2-.9,36.7s-19.9,22.4-30.5,23.6c-55.8,6.5-60.7-78.9-6.3-82.9Z"/>
  <path d="M560.9,893.8c15.3-.9,34.8,12.8,36.7,28.6,3.6,31.2-20.2,46.2-48.4,35.1-30.3-11.9-22.5-61.7,11.7-63.7Z"/>
  <path d="M663.7,951.5c-16.8-16.8-9.2-49.9,14-56.6,29.2-8.3,53.6,13.8,46.1,43.6-6.8,26.8-42.7,30.4-60.1,13Z"/>
</svg>